<svg width="24" height="24" viewBox="0 0 24 24" fill="none" xmlns="http://www.w3.org/2000/svg">
<path d="M12.8996 20.3774H4.72171C4.20108 20.3774 3.7793 19.9633 3.7793 19.4526V4.54729C3.7793 4.03649 4.20114 3.62256 4.72171 3.62256H19.912C20.4324 3.62256 20.8543 4.03649 20.8543 4.54729V19.4526C20.8543 19.9633 20.4323 20.3774 19.912 20.3774H15.5608V13.889H17.7803L18.1126 11.3604H15.5608V9.74598C15.5608 9.01388 15.768 8.51498 16.8379 8.51498L18.2024 8.51439V6.25275C17.9664 6.22194 17.1564 6.15309 16.214 6.15309C14.2466 6.15309 12.8996 7.3315 12.8996 9.49556V11.3604H10.6744V13.889H12.8996V20.3774Z" fill="white"/>
</svg>
