<svg width="23" height="24" viewBox="0 0 23 24" fill="none" xmlns="http://www.w3.org/2000/svg">
<path fill-rule="evenodd" clip-rule="evenodd" d="M11.6166 3.62256C9.29796 3.62256 9.00722 3.6322 8.0966 3.67297C7.18788 3.71364 6.56726 3.85527 6.02421 4.06238C5.4628 4.27644 4.98668 4.56289 4.51202 5.02861C4.0374 5.49437 3.74547 5.96156 3.52733 6.51245C3.31626 7.04532 3.17193 7.6543 3.13048 8.54598C3.08893 9.43952 3.0791 9.72481 3.0791 12C3.0791 14.2752 3.08893 14.5604 3.13048 15.454C3.17193 16.3457 3.31626 16.9546 3.52733 17.4875C3.74547 18.0384 4.0374 18.5056 4.51202 18.9714C4.98668 19.4371 5.4628 19.7235 6.02421 19.9376C6.56726 20.1447 7.18788 20.2863 8.0966 20.327C9.00722 20.3678 9.29796 20.3774 11.6166 20.3774C13.9352 20.3774 14.226 20.3678 15.1366 20.327C16.0453 20.2863 16.6659 20.1447 17.209 19.9376C17.7704 19.7235 18.2465 19.4371 18.7212 18.9714C19.1958 18.5056 19.4877 18.0384 19.7059 17.4875C19.9169 16.9546 20.0613 16.3457 20.1027 15.454C20.1443 14.5604 20.1541 14.2752 20.1541 12C20.1541 9.72481 20.1443 9.43952 20.1027 8.54598C20.0613 7.6543 19.9169 7.04532 19.7059 6.51245C19.4877 5.96156 19.1958 5.49437 18.7212 5.02861C18.2465 4.56289 17.7704 4.27644 17.209 4.06238C16.6659 3.85527 16.0453 3.71364 15.1366 3.67297C14.226 3.6322 13.9352 3.62256 11.6166 3.62256ZM11.6164 5.13194C13.896 5.13194 14.166 5.14049 15.0663 5.18079C15.8987 5.21804 16.3507 5.35451 16.6516 5.46924C17.0501 5.62121 17.3345 5.80275 17.6332 6.09592C17.932 6.38905 18.117 6.66812 18.2719 7.05916C18.3888 7.35436 18.5279 7.79793 18.5658 8.61472C18.6069 9.49809 18.6156 9.76306 18.6156 11.9999C18.6156 14.2368 18.6069 14.5018 18.5658 15.3851C18.5279 16.2019 18.3888 16.6455 18.2719 16.9407C18.117 17.3317 17.932 17.6108 17.6332 17.9039C17.3345 18.1971 17.0501 18.3786 16.6516 18.5306C16.3507 18.6453 15.8987 18.7818 15.0663 18.8191C14.1662 18.8594 13.8962 18.8679 11.6164 18.8679C9.33663 18.8679 9.06666 18.8594 8.16652 18.8191C7.33412 18.7818 6.88207 18.6453 6.58123 18.5306C6.18272 18.3786 5.89832 18.1971 5.59958 17.9039C5.30084 17.6108 5.11581 17.3317 4.96093 16.9407C4.84401 16.6455 4.70493 16.2019 4.66697 15.3851C4.6259 14.5018 4.61719 14.2368 4.61719 11.9999C4.61719 9.76306 4.6259 9.49809 4.66697 8.61472C4.70493 7.79793 4.84401 7.35436 4.96093 7.05916C5.11581 6.66812 5.30081 6.38905 5.59958 6.09592C5.89832 5.80275 6.18272 5.62121 6.58123 5.46924C6.88207 5.35451 7.33412 5.21804 8.16652 5.18079C9.06676 5.14049 9.3368 5.13194 11.6164 5.13194ZM7.23242 11.9999C7.23242 9.62401 9.19524 7.69799 11.6166 7.69799C14.0378 7.69799 16.0007 9.62401 16.0007 11.9999C16.0007 14.3758 14.0378 16.3018 11.6166 16.3018C9.19524 16.3018 7.23242 14.3758 7.23242 11.9999ZM11.6164 14.7924C10.0446 14.7924 8.77051 13.5422 8.77051 12C8.77051 10.4577 10.0446 9.20746 11.6164 9.20746C13.1881 9.20746 14.4622 10.4577 14.4622 12C14.4622 13.5422 13.1881 14.7924 11.6164 14.7924ZM16.1739 8.53336C16.7397 8.53336 17.1984 8.0833 17.1984 7.52809C17.1984 6.97288 16.7397 6.52278 16.1739 6.52278C15.6081 6.52278 15.1494 6.97288 15.1494 7.52809C15.1494 8.0833 15.6081 8.53336 16.1739 8.53336Z" fill="white"/>
</svg>
