<svg width="24" height="24" viewBox="0 0 24 24" fill="none" xmlns="http://www.w3.org/2000/svg">
<path fill-rule="evenodd" clip-rule="evenodd" d="M5.32239 8.06374H5.29829C4.09356 8.06374 3.3125 7.29033 3.3125 6.30997C3.3125 5.31055 4.11666 4.55334 5.34548 4.55334C6.57329 4.55334 7.32826 5.30864 7.35235 6.30711C7.35235 7.28747 6.57329 8.06374 5.32239 8.06374ZM20.3878 19.4465H16.614V14.211C16.614 12.8406 16.0237 11.905 14.7256 11.905C13.7327 11.905 13.1805 12.5364 12.9235 13.1448C12.8386 13.3371 12.8402 13.5959 12.8418 13.8627V13.8627C12.842 13.8989 12.8422 13.9352 12.8422 13.9716V19.4465H9.10352C9.10352 19.4465 9.1517 10.1722 9.10352 9.32922H12.8422V10.917C13.0631 10.2228 14.2577 9.23195 16.1642 9.23195C18.5295 9.23195 20.3878 10.6872 20.3878 13.8209V19.4465ZM7.07122 9.32919H3.74316V19.4465H7.07122V9.32919Z" fill="white"/>
</svg>
