<svg width="24" height="24" viewBox="0 0 24 24" fill="none" xmlns="http://www.w3.org/2000/svg">
<path d="M20.6209 7.13715C19.9935 7.4175 19.318 7.6071 18.6094 7.69181C19.333 7.25615 19.8883 6.56534 20.1499 5.74242C19.4723 6.14581 18.7237 6.43928 17.9239 6.5966C17.2865 5.91185 16.3755 5.48425 15.3672 5.48425C13.4339 5.48425 11.8654 7.06252 11.8654 9.00888C11.8654 9.28521 11.8955 9.55346 11.9556 9.81163C9.04414 9.66439 6.46339 8.26261 4.73454 6.12766C4.43287 6.65005 4.26049 7.25615 4.26049 7.90157C4.26049 9.12385 4.87887 10.2029 5.81896 10.8352C5.24568 10.8181 4.70448 10.6577 4.23142 10.3955V10.4389C4.23142 12.1473 5.43911 13.5722 7.04268 13.895C6.74903 13.9777 6.43934 14.019 6.11963 14.019C5.89412 14.019 5.67363 13.9978 5.46016 13.9565C5.90615 15.3562 7.19903 16.3758 8.73244 16.403C7.53377 17.349 6.02241 17.9127 4.38176 17.9127C4.09913 17.9127 3.81951 17.8966 3.5459 17.8643C5.09635 18.8627 6.93845 19.4466 8.91585 19.4466C15.3602 19.4466 18.883 14.0765 18.883 9.41832C18.883 9.26504 18.88 9.11175 18.874 8.96148C19.5585 8.4643 20.1529 7.84409 20.6209 7.13715Z" fill="white"/>
</svg>
