<svg width="18" height="17" viewBox="0 0 18 17" fill="none" xmlns="http://www.w3.org/2000/svg">
<path d="M8.55696 13.6975L12.707 16.2075C13.467 16.6675 14.397 15.9875 14.197 15.1275L13.097 10.4075L16.767 7.2275C17.437 6.6475 17.077 5.5475 16.197 5.4775L11.367 5.0675L9.47696 0.6075C9.13696 -0.2025 7.97696 -0.2025 7.63696 0.6075L5.74696 5.0575L0.916957 5.4675C0.0369575 5.5375 -0.323043 6.6375 0.346957 7.2175L4.01696 10.3975L2.91696 15.1175C2.71696 15.9775 3.64696 16.6575 4.40696 16.1975L8.55696 13.6975Z" fill="#A2A2A2"/>
<path d="M8.55696 13.7369L8.5 0.0170898C8.5 0.0170898 7.97696 -0.16307 7.63696 0.64693L5.74696 5.09693L0.916957 5.50693C0.0369575 5.57693 -0.323043 6.67693 0.346957 7.25693L4.01696 10.4369L2.91696 15.1569C2.71696 16.0169 3.64696 16.6969 4.40696 16.2369L8.55696 13.7369Z" fill="#FFC700"/>
</svg>
